<svg xmlns="http://www.w3.org/2000/svg" xmlns:xlink="http://www.w3.org/1999/xlink" width="338" zoomAndPan="magnify" viewBox="0 0 253.5 106.499997" height="142" preserveAspectRatio="xMidYMid meet" version="1.0"><defs><g/></defs><path fill="#000000" d="M 76.203125 23.890625 C 99.308594 15.484375 112.773438 37.785156 102.554688 59.851562 C 92.640625 81.277344 50.09375 89.277344 39.335938 105.761719 C 49.789062 77.378906 95.605469 79.5625 96.660156 44.664062 C 97.121094 29.410156 87.207031 23.621094 76.203125 23.890625 " fill-opacity="1" fill-rule="evenodd"/><path fill="#61ce70" d="M 39.523438 16.789062 C 26.664062 0.28125 0.351562 6.320312 5.621094 36.558594 C 9.910156 61.195312 32.496094 69.632812 40.230469 91.648438 C 37.269531 64.621094 4.367188 51.144531 14.660156 23.832031 C 17.652344 15.886719 26.605469 8.710938 39.523438 16.789062 " fill-opacity="1" fill-rule="evenodd"/><path fill="#000000" d="M 56.519531 1.8125 C 52.910156 1.324219 49.558594 3.867188 49.0625 7.480469 C 48.574219 11.09375 51.121094 14.445312 54.734375 14.9375 C 58.351562 15.429688 61.695312 12.882812 62.1875 9.265625 C 62.675781 5.652344 60.128906 2.300781 56.519531 1.8125 " fill-opacity="1" fill-rule="evenodd"/><path fill="#61ce70" d="M 47.148438 31.035156 C 56.164062 16.253906 43.34375 8 29.195312 7.113281 C 40.992188 10.5 47.179688 20.539062 47.148438 31.035156 " fill-opacity="1" fill-rule="evenodd"/><path fill="#000000" d="M 93.78125 20.332031 C 51.800781 0.0664062 38.820312 36.324219 48.25 80.632812 C 43.804688 43.195312 64.253906 11.777344 93.78125 20.332031 " fill-opacity="1" fill-rule="evenodd"/><g fill="#61ce70" fill-opacity="1"><g transform="translate(131.166452, 65.499077)"><g><path d="M 15.703125 0.84375 C 10.929688 0.84375 7.320312 0.21875 4.875 -1.03125 C 2.425781 -2.28125 1.203125 -4.378906 1.203125 -7.328125 C 1.203125 -8.328125 1.320312 -9.382812 1.5625 -10.5 C 1.8125 -11.613281 2.070312 -12.664062 2.34375 -13.65625 L 5.359375 -12.890625 C 5.191406 -12.296875 5.007812 -11.539062 4.8125 -10.625 C 4.613281 -9.71875 4.515625 -8.925781 4.515625 -8.25 C 4.515625 -6.851562 4.867188 -5.734375 5.578125 -4.890625 C 6.285156 -4.046875 7.523438 -3.425781 9.296875 -3.03125 C 11.078125 -2.644531 13.5625 -2.453125 16.75 -2.453125 C 19.382812 -2.453125 21.5625 -2.550781 23.28125 -2.75 C 25 -2.957031 26.332031 -3.28125 27.28125 -3.71875 C 28.238281 -4.164062 28.898438 -4.742188 29.265625 -5.453125 C 29.628906 -6.171875 29.796875 -7.039062 29.765625 -8.0625 L 29 -28.765625 L 32.265625 -28.765625 L 33.078125 -8.421875 C 33.097656 -7.046875 33.304688 -5.96875 33.703125 -5.1875 C 34.109375 -4.414062 34.644531 -3.875 35.3125 -3.5625 C 35.988281 -3.257812 36.734375 -3.109375 37.546875 -3.109375 C 38.109375 -3.109375 38.515625 -2.953125 38.765625 -2.640625 C 39.023438 -2.328125 39.15625 -1.957031 39.15625 -1.53125 C 39.15625 -1.101562 38.96875 -0.707031 38.59375 -0.34375 C 38.21875 0.0195312 37.734375 0.203125 37.140625 0.203125 C 35.523438 0.203125 34.296875 -0.101562 33.453125 -0.71875 C 32.609375 -1.34375 32.023438 -2.070312 31.703125 -2.90625 C 30.492188 -1.53125 28.613281 -0.5625 26.0625 0 C 23.507812 0.5625 20.054688 0.84375 15.703125 0.84375 Z M 14.65625 -8.21875 L 13.890625 -10.75 C 15.585938 -11.207031 16.796875 -11.578125 17.515625 -11.859375 C 18.242188 -12.140625 18.609375 -12.441406 18.609375 -12.765625 C 18.609375 -13.066406 18.453125 -13.34375 18.140625 -13.59375 C 17.835938 -13.851562 17.488281 -14.125 17.09375 -14.40625 C 16.707031 -14.6875 16.359375 -15.015625 16.046875 -15.390625 C 15.742188 -15.765625 15.59375 -16.21875 15.59375 -16.75 C 15.59375 -17.445312 15.925781 -18.210938 16.59375 -19.046875 C 17.269531 -19.878906 18.597656 -20.78125 20.578125 -21.75 L 21.828125 -19.453125 C 20.597656 -18.859375 19.691406 -18.351562 19.109375 -17.9375 C 18.535156 -17.53125 18.25 -17.164062 18.25 -16.84375 C 18.25 -16.59375 18.398438 -16.332031 18.703125 -16.0625 C 19.015625 -15.800781 19.363281 -15.507812 19.75 -15.1875 C 20.144531 -14.863281 20.492188 -14.492188 20.796875 -14.078125 C 21.109375 -13.660156 21.265625 -13.171875 21.265625 -12.609375 C 21.265625 -12.097656 21.101562 -11.597656 20.78125 -11.109375 C 20.457031 -10.628906 19.828125 -10.15625 18.890625 -9.6875 C 17.953125 -9.21875 16.539062 -8.726562 14.65625 -8.21875 Z M 14.65625 -8.21875 "/></g></g></g><g fill="#61ce70" fill-opacity="1"><g transform="translate(168.311392, 65.499077)"><g><path d="M 0 0.203125 L 0.40625 -3.109375 C 1.75 -3.109375 2.796875 -3.207031 3.546875 -3.40625 C 4.296875 -3.601562 4.863281 -3.988281 5.25 -4.5625 C 5.644531 -5.144531 5.960938 -5.984375 6.203125 -7.078125 C 6.441406 -8.179688 6.738281 -9.625 7.09375 -11.40625 L 10.234375 -10.796875 C 10.066406 -10.066406 9.882812 -9.234375 9.6875 -8.296875 C 9.488281 -7.359375 9.390625 -6.566406 9.390625 -5.921875 C 9.390625 -5.515625 9.414062 -5.132812 9.46875 -4.78125 C 9.519531 -4.4375 9.71875 -4.144531 10.0625 -3.90625 C 10.414062 -3.664062 11.007812 -3.472656 11.84375 -3.328125 C 12.675781 -3.179688 13.867188 -3.109375 15.421875 -3.109375 C 15.992188 -3.109375 16.40625 -2.953125 16.65625 -2.640625 C 16.90625 -2.328125 17.03125 -1.957031 17.03125 -1.53125 C 17.03125 -1.101562 16.84375 -0.707031 16.46875 -0.34375 C 16.09375 0.0195312 15.613281 0.203125 15.03125 0.203125 C 13.28125 0.203125 11.914062 0.101562 10.9375 -0.09375 C 9.957031 -0.300781 9.234375 -0.597656 8.765625 -0.984375 C 8.296875 -1.378906 7.953125 -1.867188 7.734375 -2.453125 C 6.953125 -1.359375 5.988281 -0.640625 4.84375 -0.296875 C 3.707031 0.0351562 2.09375 0.203125 0 0.203125 Z M 10.75 -15.546875 C 10.1875 -15.546875 9.707031 -15.738281 9.3125 -16.125 C 8.925781 -16.519531 8.734375 -16.984375 8.734375 -17.515625 C 8.734375 -18.054688 8.925781 -18.523438 9.3125 -18.921875 C 9.707031 -19.328125 10.1875 -19.53125 10.75 -19.53125 C 11.289062 -19.53125 11.753906 -19.328125 12.140625 -18.921875 C 12.523438 -18.523438 12.71875 -18.054688 12.71875 -17.515625 C 12.71875 -16.984375 12.523438 -16.519531 12.140625 -16.125 C 11.753906 -15.738281 11.289062 -15.546875 10.75 -15.546875 Z M 5.234375 -15.546875 C 4.671875 -15.546875 4.191406 -15.738281 3.796875 -16.125 C 3.410156 -16.519531 3.21875 -16.984375 3.21875 -17.515625 C 3.21875 -18.054688 3.410156 -18.523438 3.796875 -18.921875 C 4.191406 -19.328125 4.671875 -19.53125 5.234375 -19.53125 C 5.765625 -19.53125 6.222656 -19.328125 6.609375 -18.921875 C 7.003906 -18.523438 7.203125 -18.054688 7.203125 -17.515625 C 7.203125 -16.984375 7.003906 -16.519531 6.609375 -16.125 C 6.222656 -15.738281 5.765625 -15.546875 5.234375 -15.546875 Z M 5.234375 -15.546875 "/></g></g></g><g fill="#61ce70" fill-opacity="1"><g transform="translate(183.338573, 65.499077)"><g><path d="M 0 0.203125 L 0.40625 -3.109375 C 1.957031 -3.109375 3.179688 -3.164062 4.078125 -3.28125 C 4.984375 -3.40625 5.625 -3.707031 6 -4.1875 C 6.375 -4.675781 6.5625 -5.46875 6.5625 -6.5625 C 6.5625 -7.5625 6.328125 -8.835938 5.859375 -10.390625 C 5.390625 -11.953125 4.859375 -13.5 4.265625 -15.03125 L 7.53125 -16.234375 C 7.882812 -15.347656 8.210938 -14.359375 8.515625 -13.265625 C 8.828125 -12.179688 9.085938 -11.101562 9.296875 -10.03125 C 9.515625 -8.957031 9.625 -8.015625 9.625 -7.203125 C 9.625 -4.492188 8.867188 -2.582031 7.359375 -1.46875 C 5.859375 -0.351562 3.40625 0.203125 0 0.203125 Z M 7.453125 7.8125 C 6.890625 7.8125 6.410156 7.613281 6.015625 7.21875 C 5.628906 6.832031 5.4375 6.375 5.4375 5.84375 C 5.4375 5.300781 5.628906 4.828125 6.015625 4.421875 C 6.410156 4.023438 6.890625 3.828125 7.453125 3.828125 C 7.992188 3.828125 8.457031 4.023438 8.84375 4.421875 C 9.226562 4.828125 9.421875 5.300781 9.421875 5.84375 C 9.421875 6.375 9.226562 6.832031 8.84375 7.21875 C 8.457031 7.613281 7.992188 7.8125 7.453125 7.8125 Z M 1.9375 7.8125 C 1.375 7.8125 0.894531 7.613281 0.5 7.21875 C 0.113281 6.832031 -0.078125 6.375 -0.078125 5.84375 C -0.078125 5.300781 0.113281 4.828125 0.5 4.421875 C 0.894531 4.023438 1.375 3.828125 1.9375 3.828125 C 2.46875 3.828125 2.925781 4.023438 3.3125 4.421875 C 3.707031 4.828125 3.90625 5.300781 3.90625 5.84375 C 3.90625 6.375 3.707031 6.832031 3.3125 7.21875 C 2.925781 7.613281 2.46875 7.8125 1.9375 7.8125 Z M 1.9375 7.8125 "/></g></g></g><g fill="#61ce70" fill-opacity="1"><g transform="translate(195.384489, 65.499077)"><g><path d="M 11.71875 0.203125 C 9.539062 0.203125 7.890625 -0.0351562 6.765625 -0.515625 C 5.640625 -1.003906 4.859375 -1.757812 4.421875 -2.78125 C 3.992188 -3.800781 3.753906 -5.117188 3.703125 -6.734375 L 2.90625 -28.765625 L 6.203125 -28.765625 L 7.015625 -8.015625 C 7.066406 -6.703125 7.191406 -5.6875 7.390625 -4.96875 C 7.585938 -4.257812 8.039062 -3.769531 8.75 -3.5 C 9.46875 -3.238281 10.59375 -3.109375 12.125 -3.109375 C 12.6875 -3.109375 13.09375 -2.953125 13.34375 -2.640625 C 13.601562 -2.328125 13.734375 -1.957031 13.734375 -1.53125 C 13.734375 -1.101562 13.546875 -0.707031 13.171875 -0.34375 C 12.796875 0.0195312 12.3125 0.203125 11.71875 0.203125 Z M 11.71875 0.203125 "/></g></g></g><g fill="#61ce70" fill-opacity="1"><g transform="translate(207.108107, 65.499077)"><g><path d="M 0 0.203125 L 0.40625 -3.109375 C 2.09375 -3.109375 3.398438 -3.117188 4.328125 -3.140625 C 5.253906 -3.171875 5.929688 -3.203125 6.359375 -3.234375 C 6.796875 -3.273438 7.09375 -3.296875 7.25 -3.296875 C 6.769531 -3.566406 6.207031 -3.988281 5.5625 -4.5625 C 4.914062 -5.144531 4.347656 -5.882812 3.859375 -6.78125 C 3.378906 -7.6875 3.140625 -8.753906 3.140625 -9.984375 C 3.140625 -11.492188 3.492188 -12.832031 4.203125 -14 C 4.921875 -15.164062 5.898438 -16.070312 7.140625 -16.71875 C 8.390625 -17.363281 9.820312 -17.6875 11.4375 -17.6875 C 12.726562 -17.6875 14.054688 -17.46875 15.421875 -17.03125 L 14.75 -13.9375 C 13.613281 -14.226562 12.507812 -14.375 11.4375 -14.375 C 9.957031 -14.375 8.753906 -13.976562 7.828125 -13.1875 C 6.898438 -12.394531 6.4375 -11.328125 6.4375 -9.984375 C 6.4375 -9.097656 6.664062 -8.3125 7.125 -7.625 C 7.582031 -6.945312 8.15625 -6.375 8.84375 -5.90625 C 9.53125 -5.4375 10.238281 -5.078125 10.96875 -4.828125 C 11.707031 -4.585938 12.375 -4.484375 12.96875 -4.515625 C 13.394531 -4.648438 13.789062 -4.773438 14.15625 -4.890625 C 14.519531 -5.015625 14.976562 -5.179688 15.53125 -5.390625 C 16.082031 -5.609375 16.878906 -5.957031 17.921875 -6.4375 L 19.046875 -3.5 C 17.253906 -2.78125 15.421875 -2.132812 13.546875 -1.5625 C 11.679688 -1 9.65625 -0.5625 7.46875 -0.25 C 5.28125 0.0507812 2.789062 0.203125 0 0.203125 Z M 0 0.203125 "/></g></g></g><g fill="#61ce70" fill-opacity="1"><g transform="translate(227.372647, 65.499077)"><g><path d="M 0.15625 9.265625 L -1 6.203125 C 1.707031 5.347656 3.789062 4.328125 5.25 3.140625 C 6.71875 1.960938 7.726562 0.722656 8.28125 -0.578125 C 8.832031 -1.878906 9.109375 -3.125 9.109375 -4.3125 C 9.109375 -5.0625 9.023438 -5.785156 8.859375 -6.484375 C 8.703125 -7.179688 8.421875 -7.972656 8.015625 -8.859375 C 7.609375 -9.742188 7.046875 -10.847656 6.328125 -12.171875 L 9.265625 -13.65625 C 10.285156 -11.90625 11.015625 -10.25 11.453125 -8.6875 C 11.898438 -7.132812 12.125 -5.769531 12.125 -4.59375 C 12.125 -2.894531 11.847656 -1.363281 11.296875 0 C 10.742188 1.363281 10.019531 2.578125 9.125 3.640625 C 8.226562 4.703125 7.25 5.609375 6.1875 6.359375 C 5.125 7.117188 4.0625 7.738281 3 8.21875 C 1.9375 8.695312 0.988281 9.046875 0.15625 9.265625 Z M 0.15625 9.265625 "/></g></g></g></svg>